:FULLY-SPECIFIED
:FORCE-ALL-JOINTS-BE-3DOF
:DEGREES
2650
root -1.34787 15.1398 -28.696 161.548 -75.3606 -164.662
lfemur -54.1586 25.5986 -12.394
ltibia 67.5487 -0 0
lfoot 0.816468 6.96288 -0.0465882
ltoes -28.9218 0 0
rfemur -36.2173 -17.5111 24.4738
rtibia 69.2438 -0 0
rfoot -24.0475 -5.55465 0.134865
rtoes -4.27256 0 0
lowerback 18.8895 4.04892 -0.815756
upperback -0.22651 5.25133 1.16316
thorax -11.0345 2.52443 0.279217
lowerneck -2.62022 9.14487 -1.04396
upperneck 4.11732 12.196 1.02117
head 1.59378 6.08964 0.736836
lclavicle 3.87151e-14 1.00491e-14 -2.03138e-30
lhumerus 66.5632 -34.6755 42.419
lradius 106.297 -0 0
lwrist -26.9715 0 0
lhand -36.6675 27.1883 -0.00733903
lfingers 7.12502 -0 0
lthumb -9.75363 56.937 -0.00604883
rclavicle 3.87151e-14 1.00491e-14 -2.03138e-30
rhumerus -2.49732 74.2892 -77.4345
rradius 99.3362 -0 0
rwrist -34.8296 0 0
rhand -0.195041 -31.7027 0.0174395
rfingers 7.12502 -0 0
rthumb 25.4029 -60.0248 0.018641
2651
root -1.44472 15.1151 -28.6782 161.738 -75.0116 -164.858
lfemur -54.0765 25.9986 -12.2157
ltibia 67.2428 -0 0
lfoot 0.962121 6.74095 -0.0542143
ltoes -28.5334 0 0
rfemur -36.0679 -17.5663 24.3213
rtibia 69.5564 -0 0
rfoot -24.2729 -5.96894 0.156958
rtoes -4.55571 0 0
lowerback 18.8028 4.09949 -0.760834
upperback -0.289491 5.33589 1.17469
thorax -11.0519 2.56268 0.241556
lowerneck -2.6325 9.16935 -0.940874
upperneck 4.21254 12.2236 1.01431
head 1.63468 6.10465 0.724448
lclavicle 3.70606e-14 9.19641e-15 -2.36378e-30
lhumerus 63.8727 -34.2305 44.4947
lradius 106.117 -0 0
lwrist -26.732 0 0
lhand -36.7858 27.2314 -0.00854006
lfingers 7.12502 -0 0
lthumb -9.86773 56.9738 -0.00703871
rclavicle 3.70606e-14 9.19641e-15 -2.36378e-30
rhumerus -5.3984 73.8671 -79.6589
rradius 99.7922 -0 0
rwrist -36.3726 0 0
rhand -0.0966598 -31.5797 0.0202936
rfingers 7.12502 -0 0
rthumb 25.497 -59.8873 0.0216918
2652
root -1.54156 15.0905 -28.6604 161.92 -74.6625 -165.045
lfemur -53.9927 26.3984 -12.036
ltibia 66.9368 -0 0
lfoot 1.1078 6.51901 -0.0612762
ltoes -28.145 0 0
rfemur -35.9183 -17.621 24.1686
rtibia 69.8689 -0 0
rfoot -24.4985 -6.38332 0.17742
rtoes -4.83886 0 0
lowerback 18.7162 4.15015 -0.705986
upperback -0.352464 5.42046 1.18613
thorax -11.0692 2.60092 0.203883
lowerneck -2.64473 9.19385 -0.837786
upperneck 4.30776 12.2512 1.00749
head 1.67557 6.11966 0.71207
lclavicle 3.54061e-14 8.34373e-15 -2.67157e-30
lhumerus 61.2186 -33.7062 46.5311
lradius 105.937 -0 0
lwrist -26.4924 0 0
lhand -36.9041 27.2745 -0.00965214
lfingers 7.12502 -0 0
lthumb -9.98183 57.0106 -0.00795528
rclavicle 3.54061e-14 8.34373e-15 -2.67157e-30
rhumerus -8.16562 73.4154 -81.7487
rradius 100.248 -0 0
rwrist -37.9155 0 0
rhand 0.00172703 -31.4566 0.0229363
rfingers 7.12502 -0 0
rthumb 25.5912 -59.7498 0.0245167
2653
root -1.63841 15.0658 -28.6426 162.093 -74.3133 -165.223
lfemur -53.9072 26.7979 -11.8552
ltibia 66.6309 -0 0
lfoot 1.25351 6.29705 -0.0677737
ltoes -27.7566 0 0
rfemur -35.7685 -17.6754 24.0158
rtibia 70.1814 -0 0
rfoot -24.7242 -6.79777 0.196251
rtoes -5.12201 0 0
lowerback 18.6296 4.20088 -0.651211
upperback -0.415429 5.50504 1.19747
thorax -11.0866 2.63915 0.166197
lowerneck -2.65693 9.21837 -0.734695
upperneck 4.40298 12.2788 1.00072
head 1.71645 6.13468 0.699702
lclavicle 3.37515e-14 7.49105e-15 -2.95473e-30
lhumerus 58.6056 -33.1049 48.5233
lradius 105.757 -0 0
lwrist -26.2528 0 0
lhand -37.0224 27.3176 -0.0106753
lfingers 7.12502 -0 0
lthumb -10.0959 57.0475 -0.00879854
rclavicle 3.37515e-14 7.49105e-15 -2.95473e-30
rhumerus -10.8016 72.9365 -83.7065
rradius 100.704 -0 0
rwrist -39.4585 0 0
rhand 0.100119 -31.3335 0.0253677
rfingers 7.12502 -0 0
rthumb 25.6853 -59.6124 0.0271157
2654
root -1.73525 15.0412 -28.6248 162.259 -73.9639 -165.395
lfemur -53.82 27.1971 -11.6729
ltibia 66.3249 -0 0
lfoot 1.39924 6.07507 -0.0737067
ltoes -27.3682 0 0
rfemur -35.6185 -17.7294 23.8627
rtibia 70.494 -0 0
rfoot -24.95 -7.21229 0.213448
rtoes -5.40516 0 0
lowerback 18.5431 4.2517 -0.59651
upperback -0.478387 5.58963 1.20873
thorax -11.1041 2.67737 0.128498
lowerneck -2.66907 9.24291 -0.631603
upperneck 4.49822 12.3064 0.993996
head 1.75734 6.14971 0.687345
lclavicle 3.2097e-14 6.63837e-15 -3.21327e-30
lhumerus 56.0375 -32.429 50.4667
lradius 105.577 -0 0
lwrist -26.0133 0 0
lhand -37.1407 27.3606 -0.0116095
lfingers 7.12502 -0 0
lthumb -10.21 57.0843 -0.00956848
rclavicle 3.2097e-14 6.63837e-15 -3.21327e-30
rhumerus -13.3104 72.4326 -85.5363
rradius 101.16 -0 0
rwrist -41.0014 0 0
rhand 0.198517 -31.2104 0.0275877
rfingers 7.12502 -0 0
rthumb 25.7795 -59.4749 0.0294887
2655
root -1.83209 15.0166 -28.607 162.418 -73.6144 -165.559
lfemur -53.7311 27.5962 -11.4894
ltibia 66.0189 -0 0
lfoot 1.545 5.85308 -0.079075
ltoes -26.9799 0 0
rfemur -35.4683 -17.783 23.7094
rtibia 70.8065 -0 0
rfoot -25.1759 -7.62688 0.229011
rtoes -5.68831 0 0
lowerback 18.4566 4.3026 -0.541882
upperback -0.541336 5.67423 1.21989
thorax -11.1215 2.71557 0.0907856
lowerneck -2.68118 9.26747 -0.528508
upperneck 4.59346 12.334 0.987318
head 1.79822 6.16476 0.674998
lclavicle 3.04425e-14 5.78568e-15 -3.44718e-30
lhumerus 53.5177 -31.6812 52.3575
lradius 105.397 -0 0
lwrist -25.7737 0 0
lhand -37.2591 27.4037 -0.0124547
lfingers 7.12502 -0 0
lthumb -10.3241 57.1211 -0.0102651
rclavicle 3.04425e-14 5.78568e-15 -3.44718e-30
rhumerus -15.697 71.9059 -87.2429
rradius 101.616 -0 0
rwrist -42.5444 0 0
rhand 0.296918 -31.0874 0.0295964
rfingers 7.12502 -0 0
rthumb 25.8737 -59.3374 0.0316359
2656
root -1.92894 14.9919 -28.5892 162.57 -73.2648 -165.716
lfemur -53.6404 27.9949 -11.3045
ltibia 65.713 -0 0
lfoot 1.69077 5.63107 -0.0838785
ltoes -26.5915 0 0
rfemur -35.3179 -17.8362 23.5559
rtibia 71.119 -0 0
rfoot -25.402 -8.04153 0.242939
rtoes -5.97146 0 0
lowerback 18.3701 4.35358 -0.487327
upperback -0.604279 5.75885 1.23096
thorax -11.139 2.75376 0.0530605
lowerneck -2.69324 9.29206 -0.425412
upperneck 4.6887 12.3617 0.980686
head 1.8391 6.1798 0.662661
lclavicle 2.8788e-14 4.933e-15 -3.65648e-30
lhumerus 51.0489 -30.8644 54.1927
lradius 105.217 -0 0
lwrist -25.5342 0 0
lhand -37.3774 27.4468 -0.013211
lfingers 7.12502 -0 0
lthumb -10.4382 57.1579 -0.0108884
rclavicle 2.8788e-14 4.933e-15 -3.65648e-30
rhumerus -17.9671 71.3585 -88.8319
rradius 102.072 -0 0
rwrist -44.0874 0 0
rhand 0.395324 -30.9643 0.0313937
rfingers 7.12502 -0 0
rthumb 25.9679 -59.1999 0.033557
2657
root -2.02578 14.9673 -28.5714 162.716 -72.9151 -165.868
lfemur -53.5478 28.3934 -11.1181
ltibia 65.407 -0 0
lfoot 1.83656 5.40906 -0.0881172
ltoes -26.2031 0 0
rfemur -35.1673 -17.889 23.4023
rtibia 71.4315 -0 0
rfoot -25.6281 -8.45623 0.25523
rtoes -6.25461 0 0
lowerback 18.2837 4.40465 -0.432846
upperback -0.667214 5.84348 1.24194
thorax -11.1565 2.79195 0.0153223
lowerneck -2.70526 9.31667 -0.322314
upperneck 4.78396 12.3893 0.9741
head 1.87998 6.19486 0.650335
lclavicle 2.71334e-14 4.08032e-15 -3.84115e-30
lhumerus 48.6328 -29.9815 55.9696
lradius 105.037 -0 0
lwrist -25.2946 0 0
lhand -37.4957 27.4899 -0.0138783
lfingers 7.12502 -0 0
lthumb -10.5523 57.1947 -0.0114384
rclavicle 2.71334e-14 4.08032e-15 -3.84115e-30
rhumerus -20.1268 70.7921 -90.3095
rradius 102.528 -0 0
rwrist -45.6303 0 0
rhand 0.493734 -30.8412 0.0329795
rfingers 7.12502 -0 0
rthumb 26.062 -59.0625 0.0352522
2658
root -2.12262 14.9426 -28.5536 162.856 -72.5652 -166.013
lfemur -53.4535 28.7916 -10.9304
ltibia 65.1011 -0 0
lfoot 1.98237 5.18703 -0.0917909
ltoes -25.8147 0 0
rfemur -35.0165 -17.9415 23.2484
rtibia 71.7441 -0 0
rfoot -25.8543 -8.87097 0.265885
rtoes -6.53776 0 0
lowerback 18.1974 4.45579 -0.378438
upperback -0.730143 5.92812 1.25283
thorax -11.174 2.83012 -0.022429
lowerneck -2.71723 9.34129 -0.219213
upperneck 4.87922 12.417 0.967561
head 1.92086 6.20993 0.63802
lclavicle 2.54789e-14 3.22764e-15 -4.0012e-30
lhumerus 46.271 -29.0355 57.6864
lradius 104.857 -0 0
lwrist -25.055 0 0
lhand -37.614 27.533 -0.0144566
lfingers 7.12502 -0 0
lthumb -10.6664 57.2316 -0.0119151
rclavicle 2.54789e-14 3.22764e-15 -4.0012e-30
rhumerus -22.1823 70.2084 -91.6817
rradius 102.984 -0 0
rwrist -47.1733 0 0
rhand 0.592147 -30.7181 0.0343539
rfingers 7.12502 -0 0
rthumb 26.1562 -58.925 0.0367214
2659
root -2.21947 14.918 -28.5358 162.99 -72.2153 -166.152
lfemur -53.3573 29.1896 -10.7411
ltibia 64.7951 -0 0
lfoot 2.12819 4.965 -0.0948995
ltoes -25.4263 0 0
rfemur -34.8655 -17.9936 23.0944
rtibia 72.0566 -0 0
rfoot -26.0806 -9.28576 0.274901
rtoes -6.82091 0 0
lowerback 18.1111 4.50702 -0.324104
upperback -0.793065 6.01277 1.26362
thorax -11.1916 2.86828 -0.0601932
lowerneck -2.72916 9.36594 -0.116111
upperneck 4.97449 12.4447 0.961069
head 1.96174 6.225 0.625714
lclavicle 2.38244e-14 2.37496e-15 -4.13662e-30
lhumerus 43.964 -28.0295 59.3419
lradius 104.677 -0 0
lwrist -24.8155 0 0
lhand -37.7323 27.5761 -0.014946
lfingers 7.12502 -0 0
lthumb -10.7805 57.2684 -0.0123184
rclavicle 2.38244e-14 2.37496e-15 -4.13662e-30
rhumerus -24.1399 69.6091 -92.9548
rradius 103.44 -0 0
rwrist -48.7162 0 0
rhand 0.690562 -30.595 0.0355169
rfingers 7.12502 -0 0
rthumb 26.2504 -58.7875 0.0379645
